<?xml version="1.0" encoding="UTF-8" standalone="no"?>
<!-- Created with Inkscape (http://www.inkscape.org/) -->

<svg
   version="1.1"
   id="svg2"
   width="1122.52"
   height="793.70667"
   viewBox="0 0 1122.52 793.70667"
   sodipodi:docname="ministere-de-l-economie-et-des-finances-seeklogo.com.ai"
   xmlns:inkscape="http://www.inkscape.org/namespaces/inkscape"
   xmlns:sodipodi="http://sodipodi.sourceforge.net/DTD/sodipodi-0.dtd"
   xmlns="http://www.w3.org/2000/svg"
   xmlns:svg="http://www.w3.org/2000/svg">
  <defs
     id="defs6">
    <clipPath
       clipPathUnits="userSpaceOnUse"
       id="clipPath30">
      <path
         d="M 0,595.28 H 841.89 V 0 H 0 Z"
         id="path28" />
    </clipPath>
  </defs>
  <sodipodi:namedview
     id="namedview4"
     pagecolor="#ffffff"
     bordercolor="#000000"
     borderopacity="0.25"
     inkscape:showpageshadow="2"
     inkscape:pageopacity="0.0"
     inkscape:pagecheckerboard="0"
     inkscape:deskcolor="#d1d1d1" />
  <g
     id="g8"
     inkscape:groupmode="layer"
     inkscape:label="ministere-de-l-economie-et-des-finances-seeklogo.com"
     transform="matrix(1.3333333,0,0,-1.3333333,0,793.70667)">
    <g
       id="g10"
       transform="translate(420.945,71.5759)">
      <path
         d="M 0,0 -180.705,180.705 0,361.41 180.705,180.705 Z"
         style="fill:#2597b0;fill-opacity:1;fill-rule:nonzero;stroke:none"
         id="path12" />
    </g>
    <g
       id="g14"
       transform="translate(420.945,145.8622)">
      <path
         d="M 0,0 -106.419,106.419 0,212.838 106.419,106.419 Z"
         style="fill:#ffffff;fill-opacity:1;fill-rule:nonzero;stroke:none"
         id="path16" />
    </g>
    <g
       id="g18"
       transform="translate(420.945,171.3168)">
      <path
         d="M 0,0 -80.964,80.964 0,161.928 80.964,80.964 Z"
         style="fill:#1e4998;fill-opacity:1;fill-rule:nonzero;stroke:none"
         id="path20" />
    </g>
    <path
       d="M 704.626,145.862 H 137.265 v 106.419 h 567.361 z"
       style="fill:#ffffff;fill-opacity:1;fill-rule:nonzero;stroke:none"
       id="path22" />
    <g
       id="g24">
      <g
         id="g26"
         clip-path="url(#clipPath30)">
        <g
           id="g32"
           transform="translate(312.0674,240.3459)">
          <path
             d="m 0,0 h -195.005 c -1.379,0 -2.497,1.118 -2.497,2.498 v 0 c 0,1.379 1.118,2.497 2.497,2.497 H 0 c 1.379,0 2.498,-1.118 2.498,-2.497 v 0 C 2.498,1.118 1.379,0 0,0"
             style="fill:#1e4998;fill-opacity:1;fill-rule:nonzero;stroke:none"
             id="path34" />
        </g>
        <g
           id="g36"
           transform="translate(724.8275,240.3459)">
          <path
             d="m 0,0 h -195.005 c -1.379,0 -2.497,1.118 -2.497,2.498 v 0 c 0,1.379 1.118,2.497 2.497,2.497 H 0 c 1.379,0 2.498,-1.118 2.498,-2.497 v 0 C 2.498,1.118 1.379,0 0,0"
             style="fill:#1e4998;fill-opacity:1;fill-rule:nonzero;stroke:none"
             id="path38" />
        </g>
        <g
           id="g40"
           transform="translate(312.0674,145.8622)">
          <path
             d="m 0,0 h -267.542 c -1.379,0 -2.498,1.118 -2.498,2.498 0,1.379 1.119,2.497 2.498,2.497 H 0 C 1.379,4.995 2.498,3.877 2.498,2.498 2.498,1.118 1.379,0 0,0"
             style="fill:#1e4998;fill-opacity:1;fill-rule:nonzero;stroke:none"
             id="path42" />
        </g>
        <g
           id="g44"
           transform="translate(797.3646,145.8622)">
          <path
             d="m 0,0 h -267.542 c -1.379,0 -2.498,1.118 -2.498,2.498 0,1.379 1.119,2.497 2.498,2.497 H 0 C 1.379,4.995 2.498,3.877 2.498,2.498 2.498,1.118 1.379,0 0,0"
             style="fill:#1e4998;fill-opacity:1;fill-rule:nonzero;stroke:none"
             id="path46" />
        </g>
        <g
           id="g48"
           transform="translate(136.0332,231.0752)">
          <path
             d="M 0,0 C 1.344,0 2.437,1.05 2.437,2.437 2.437,3.738 1.344,4.789 0,4.789 -1.302,4.789 -2.394,3.738 -2.394,2.437 -2.394,1.05 -1.302,0 0,0"
             style="fill:#1e4998;fill-opacity:1;fill-rule:nonzero;stroke:none"
             id="path50" />
        </g>
        <g
           id="g52"
           transform="translate(130.3623,231.0752)">
          <path
             d="M 0,0 C 1.386,0 2.479,1.05 2.479,2.437 2.479,3.738 1.386,4.789 0,4.789 -1.302,4.789 -2.352,3.738 -2.352,2.437 -2.352,1.05 -1.302,0 0,0"
             style="fill:#1e4998;fill-opacity:1;fill-rule:nonzero;stroke:none"
             id="path54" />
        </g>
        <g
           id="g56"
           transform="translate(182.0605,207.5508)">
          <path
             d="m 0,0 c -1.344,0 -2.437,-1.092 -2.437,-2.395 0,-1.385 1.093,-2.436 2.437,-2.436 1.302,0 2.395,1.051 2.395,2.436 C 2.395,-1.092 1.302,0 0,0"
             style="fill:#1e4998;fill-opacity:1;fill-rule:nonzero;stroke:none"
             id="path58" />
        </g>
        <g
           id="g60"
           transform="translate(187.4795,207.5508)">
          <path
             d="m 0,0 c -1.302,0 -2.395,-1.092 -2.395,-2.395 0,-1.385 1.093,-2.436 2.395,-2.436 1.302,0 2.479,1.051 2.479,2.436 C 2.479,-1.092 1.302,0 0,0"
             style="fill:#1e4998;fill-opacity:1;fill-rule:nonzero;stroke:none"
             id="path62" />
        </g>
        <g
           id="g64"
           transform="translate(137.5039,214.2725)">
          <path
             d="m 0,0 c -2.773,0.084 -8.36,-0.589 -8.36,4.956 0,3.025 1.302,5.167 3.907,5.167 4.033,0 4.495,-3.57 4.495,-7.099 C 0.042,1.974 0,0.924 0,0 M 88.529,21.171 H 86.975 V 3.15 C 86.975,1.26 86.26,0.168 84.286,0 h -0.083 -1.051 -3.778 -0.632 -4.198 -0.631 -4.199 -0.631 -4.198 -0.632 -4.198 -0.631 -4.197 c -3.151,0 -4.243,1.302 -4.412,4.242 v 2.563 c 0,2.184 -1.091,3.276 -3.276,3.276 H 46.027 V 3.15 C 46.027,1.218 45.271,0.168 43.296,0 H 42.751 41.49 37.922 37.291 33.092 32.461 28.263 27.631 23.433 22.802 18.604 17.972 13.774 13.143 9.115 8.313 6.133 4.159 l 0.042,3.612 c 0.042,4.873 -2.353,10.04 -8.276,10.04 -5.503,0 -8.444,-4.159 -8.444,-9.242 0,-7.519 6.806,-8.527 11.931,-8.653 2.562,0.126 9.956,0 9.703,0.042 h 4.028 0.631 4.198 0.632 4.198 0.631 4.198 0.632 4.198 0.631 4.199 0.631 3.568 1.261 0.923 c 2.311,0.084 4.033,0.798 5.251,1.974 1.381,-1.223 3.286,-1.882 5.669,-1.959 v -0.015 h 0.465 0.168 4.197 0.631 4.198 0.632 4.198 0.631 4.199 0.631 4.198 0.632 3.778 1.051 0.461 c 4.831,0.168 7.183,3.192 7.183,7.141 v 14.955 c 0,2.184 -1.134,3.276 -3.318,3.276"
             style="fill:#1e4998;fill-opacity:1;fill-rule:nonzero;stroke:none"
             id="path66" />
        </g>
        <g
           id="g68"
           transform="translate(272.2734,213.5996)">
          <path
             d="m 0,0 c -2.646,0 -3.949,2.101 -3.949,5.083 0,3.571 1.345,5.671 4.327,5.671 2.562,0 3.865,-2.1 3.865,-5.125 C 4.243,2.101 2.982,0 0,0 M 41.997,21.844 H 40.442 V 3.823 c 0,-1.89 -0.714,-2.982 -2.688,-3.15 H 37.671 36.62 32.841 32.21 28.012 27.38 23.182 22.551 18.353 17.721 13.736 13.316 c -3.528,0 -4.873,1.218 -4.873,4.41 0,5.083 -2.982,9.2 -8.443,9.2 -5.041,0 -8.107,-4.075 -8.107,-8.528 C -8.191,2.017 -9.2,0.673 -13.064,0.673 h -0.42 -2.938 -0.632 -4.198 -0.631 -4.199 -0.631 -4.408 -0.421 -0.083 c -1.68,0.168 -2.478,0.966 -2.646,2.393 v 16.342 c 0,1.47 -1.428,2.436 -2.688,2.436 h -2.185 V 3.613 c 0,-3.949 2.352,-6.973 7.184,-7.141 h 0.418 0.421 4.408 0.631 4.199 0.631 4.198 0.632 2.938 1.092 0.799 V -3.5 c 2.509,0.137 4.473,0.925 5.88,2.408 1.47,-1.512 3.571,-2.436 6.091,-2.436 2.394,0 4.327,0.924 5.713,2.352 1.513,-1.596 3.697,-2.352 6.553,-2.352 h 0.248 0.844 3.985 0.632 4.198 0.631 4.198 0.632 4.198 0.631 3.779 1.051 0.461 c 4.83,0.168 7.183,3.192 7.183,7.141 v 14.954 c 0,2.185 -1.134,3.277 -3.318,3.277"
             style="fill:#1e4998;fill-opacity:1;fill-rule:nonzero;stroke:none"
             id="path70" />
        </g>
        <g
           id="g72"
           transform="translate(324.3491,235.4014)">
          <path
             d="m 0,0 h -2.142 v -22.096 c 0,-2.226 1.428,-3.234 2.898,-3.234 H 2.688 V -2.394 C 2.688,-1.008 1.218,0 0,0"
             style="fill:#1e4998;fill-opacity:1;fill-rule:nonzero;stroke:none"
             id="path74" />
        </g>
        <g
           id="g76"
           transform="translate(351.439,214.2305)">
          <path
             d="m 0,0 c -2.73,0 -5.797,0.504 -5.797,5.04 0,2.983 1.303,5.167 3.907,5.167 4.914,0 4.285,-6.049 4.453,-10.165 C 1.849,0.042 0.925,0 0,0 m 1.555,13.189 v -0.042 c -0.924,0.379 -1.933,0.589 -3.067,0.589 -5.503,0 -8.443,-4.159 -8.443,-9.242 0,-7.519 6.805,-8.569 11.93,-8.653 -1.05,-1.933 -3.613,-3.654 -9.284,-3.78 v -1.555 c 0,-1.134 1.134,-2.017 2.941,-2.017 8.611,0 11.006,5.587 11.048,8.612 L 6.764,3.696 C 6.764,4.83 6.596,5.965 6.386,7.015 5.924,9.619 4.243,12.14 1.555,13.189"
             style="fill:#1e4998;fill-opacity:1;fill-rule:nonzero;stroke:none"
             id="path78" />
        </g>
        <g
           id="g80"
           transform="translate(380.0835,226.4961)">
          <path
             d="m 0,0 c -0.673,0.168 -1.261,0.252 -1.807,0.252 -1.806,0 -2.898,-0.84 -3.822,-2.311 L -6.47,-3.402 c 0.757,0.126 1.429,0.168 2.059,0.168 1.471,0 2.814,-0.378 4.201,-1.261 0.126,-0.084 3.738,-2.394 3.738,-7.729 H -8.065 v -1.68 c 0,-1.261 0.755,-2.521 2.31,-2.521 H 7.897 v 4.201 c 0,5.377 -2.814,8.696 -3.445,9.494 C 2.73,-0.672 0.084,0 0,0"
             style="fill:#1e4998;fill-opacity:1;fill-rule:nonzero;stroke:none"
             id="path82" />
        </g>
        <g
           id="g84"
           transform="translate(545.6777,227.336)">
          <path
             d="M 0,0 C 1.345,0 2.437,1.051 2.437,2.395 2.437,3.781 1.345,4.831 0,4.831 -1.302,4.831 -2.395,3.781 -2.395,2.395 -2.395,1.051 -1.302,0 0,0"
             style="fill:#1e4998;fill-opacity:1;fill-rule:nonzero;stroke:none"
             id="path86" />
        </g>
        <g
           id="g88"
           transform="translate(540.2168,227.336)">
          <path
             d="M 0,0 C 1.303,0 2.395,1.051 2.395,2.395 2.395,3.781 1.303,4.831 0,4.831 -1.344,4.831 -2.437,3.781 -2.437,2.395 -2.437,1.051 -1.344,0 0,0"
             style="fill:#1e4998;fill-opacity:1;fill-rule:nonzero;stroke:none"
             id="path90" />
        </g>
        <g
           id="g92"
           transform="translate(597.3359,231.1172)">
          <path
             d="M 0,0 C 1.261,0 2.395,1.05 2.395,2.395 2.395,3.738 1.261,4.789 0,4.789 -1.386,4.789 -2.437,3.738 -2.437,2.395 -2.437,1.05 -1.386,0 0,0"
             style="fill:#1e4998;fill-opacity:1;fill-rule:nonzero;stroke:none"
             id="path94" />
        </g>
        <g
           id="g96"
           transform="translate(591.665,231.1172)">
          <path
             d="M 0,0 C 1.345,0 2.395,1.05 2.395,2.395 2.395,3.738 1.345,4.789 0,4.789 -1.344,4.789 -2.437,3.738 -2.437,2.395 -2.437,1.05 -1.344,0 0,0"
             style="fill:#1e4998;fill-opacity:1;fill-rule:nonzero;stroke:none"
             id="path98" />
        </g>
        <g
           id="g100"
           transform="translate(598.4707,214.2725)">
          <path
             d="m 0,0 c -3.108,0.126 -8.317,-0.715 -8.317,4.998 0,3.025 1.301,5.167 3.906,5.167 3.991,0 4.453,-3.486 4.453,-7.015 C 0.042,2.058 0,0.966 0,0 m -107.764,0 h -15.291 c 0.757,3.108 4.159,8.737 9.075,8.905 5.502,-0.252 6.258,-3.949 6.258,-7.435 0,-0.504 0,-1.008 -0.042,-1.47 M -4.033,13.694 c -5.503,0 -8.444,-4.159 -8.444,-9.242 0,-1.848 0.378,-3.318 1.093,-4.452 h -3.444 -0.841 -3.988 -0.632 -4.198 -0.631 -4.198 -0.632 -4.198 -0.631 -4.199 -0.631 -4.199 -0.631 -4.197 c -3.15,0.084 -4.243,1.302 -4.411,4.242 v 2.563 c 0,2.184 -1.092,3.276 -3.276,3.276 h -1.513 V 3.15 c 0,-1.932 -0.756,-2.982 -2.73,-3.15 h -0.544 -1.262 -3.568 -0.631 -4.199 -0.631 -4.199 -0.631 -4.198 -0.632 -4.198 -0.631 -4.198 -0.632 -4.198 -0.631 -4.193 -0.637 -3.186 v 1.218 c 0,5.251 -2.52,12.392 -9.41,12.392 -4.453,0 -8.149,-3.487 -10.712,-7.771 v 0.714 c 0,3.108 -0.923,3.108 -3.234,3.108 h -0.967 V 0 h -3.401 -1.261 -3.568 -0.632 -4.198 -0.631 -4.198 -0.632 -4.198 -0.631 -4.199 -0.631 -4.199 -0.631 -4.198 -0.632 -4.198 -0.631 -4.198 -0.632 -4.198 -0.63 -4.199 -0.631 -4.199 -0.631 -4.198 -0.632 -4.407 -0.422 -0.083 c -1.679,0.168 -2.477,0.966 -2.646,2.394 v 16.341 c 0,1.47 -1.428,2.436 -2.689,2.436 h -2.183 V 2.94 c 0,-3.949 2.351,-6.973 7.182,-7.141 h 0.419 0.422 4.407 0.632 4.198 0.631 4.199 0.631 4.199 0.63 4.198 0.632 4.198 0.631 4.198 0.632 4.198 0.631 4.199 0.631 4.199 0.631 4.198 0.632 4.198 0.631 4.198 0.632 3.568 1.261 30.91 0.637 4.193 0.631 4.198 0.632 4.198 0.631 4.198 0.632 4.198 0.631 4.199 0.631 4.199 0.631 3.568 1.262 0.922 c 2.31,0.084 4.033,0.798 5.251,1.974 1.38,-1.223 3.286,-1.882 5.668,-1.959 v -0.015 h 0.465 0.168 4.197 0.631 4.199 0.631 4.199 0.631 4.198 0.632 4.198 0.631 4.198 0.632 3.988 0.841 14.113 4.957 v 7.855 c 0,2.227 -0.42,4.579 -1.638,6.469 -1.428,2.437 -3.991,3.571 -6.637,3.571"
             style="fill:#1e4998;fill-opacity:1;fill-rule:nonzero;stroke:none"
             id="path102" />
        </g>
        <g
           id="g104"
           transform="translate(624.0908,235.5694)">
          <path
             d="m 0,0 h -1.512 v -18.104 c 0,-1.933 -0.715,-3.025 -2.688,-3.193 h -4.579 v 18.861 c 0,1.386 -1.512,2.394 -2.689,2.394 h -2.184 v -21.255 h -4.789 v -1.219 c 0,-1.932 1.092,-2.982 3.571,-2.982 h 11.048 c 4.789,0.168 7.141,3.234 7.141,7.142 v 15.08 C 3.319,-1.134 2.185,0 0,0"
             style="fill:#1e4998;fill-opacity:1;fill-rule:nonzero;stroke:none"
             id="path106" />
        </g>
        <g
           id="g108"
           transform="translate(635.0078,235.4014)">
          <path
             d="m 0,0 h -2.143 v -22.096 c 0,-2.226 1.428,-3.234 2.899,-3.234 H 2.688 V -2.394 C 2.688,-1.008 1.218,0 0,0"
             style="fill:#1e4998;fill-opacity:1;fill-rule:nonzero;stroke:none"
             id="path110" />
        </g>
        <g
           id="g112"
           transform="translate(659.0732,231.0752)">
          <path
             d="m 0,0 c 1.303,0 2.395,1.008 2.395,2.311 0,1.343 -1.092,2.31 -2.395,2.31 -1.344,0 -2.353,-0.967 -2.353,-2.31 C -2.353,1.008 -1.344,0 0,0"
             style="fill:#1e4998;fill-opacity:1;fill-rule:nonzero;stroke:none"
             id="path114" />
        </g>
        <g
           id="g116"
           transform="translate(661.8457,213.5996)">
          <path
             d="m 0,0 c -2.982,0 -4.284,2.101 -4.284,5.671 0,2.983 1.302,5.125 3.906,5.125 2.941,0 4.285,-2.142 4.285,-5.671 C 3.907,2.101 2.646,0 0,0 m 0,14.325 c -5.503,0 -8.443,-4.117 -8.443,-9.2 0,-4.578 2.94,-8.653 8.065,-8.653 5.503,0 8.485,4.075 8.485,9.199 0,4.537 -2.982,8.654 -8.107,8.654"
             style="fill:#1e4998;fill-opacity:1;fill-rule:nonzero;stroke:none"
             id="path118" />
        </g>
        <g
           id="g120"
           transform="translate(664.4082,231.0752)">
          <path
             d="m 0,0 c 1.219,0 2.311,1.008 2.311,2.311 0,1.343 -1.092,2.31 -2.311,2.31 -1.344,0 -2.353,-0.967 -2.353,-2.31 C -2.353,1.008 -1.344,0 0,0"
             style="fill:#1e4998;fill-opacity:1;fill-rule:nonzero;stroke:none"
             id="path122" />
        </g>
        <g
           id="g124"
           transform="translate(675.0752,224.4375)">
          <path
             d="m 0,0 h -1.807 v -10.165 c 0,-4.537 0.336,-7.394 -2.982,-7.394 -0.126,0 -0.924,0.042 -1.68,0.168 v -1.764 c 0,-1.638 1.386,-2.563 3.445,-2.563 3.528,0 6.09,2.731 6.09,5.713 V -3.36 C 3.066,-0.966 2.353,0 0,0"
             style="fill:#1e4998;fill-opacity:1;fill-rule:nonzero;stroke:none"
             id="path126" />
        </g>
        <g
           id="g128"
           transform="translate(687.5908,233.0078)">
          <path
             d="m 0,0 c 0,1.386 -1.471,2.394 -2.688,2.394 h -2.143 v -22.096 c 0,-2.227 1.428,-3.235 2.898,-3.235 H 0 Z"
             style="fill:#1e4998;fill-opacity:1;fill-rule:nonzero;stroke:none"
             id="path130" />
        </g>
        <g
           id="g132"
           transform="translate(693.5537,227.042)">
          <path
             d="M 0,0 C 1.26,0 2.395,1.093 2.395,2.437 2.395,3.781 1.303,4.831 0,4.831 -1.344,4.831 -2.395,3.781 -2.395,2.437 -2.395,1.093 -1.302,0 0,0"
             style="fill:#1e4998;fill-opacity:1;fill-rule:nonzero;stroke:none"
             id="path134" />
        </g>
        <g
           id="g136"
           transform="translate(693.3437,224.4375)">
          <path
             d="m 0,0 h -1.807 v -10.165 c 0,-4.537 0.336,-7.394 -2.982,-7.394 -0.126,0 -0.924,0.042 -1.68,0.168 v -1.764 c 0,-1.638 1.386,-2.563 3.445,-2.563 3.528,0 6.09,2.731 6.09,5.713 V -3.36 C 3.066,-0.966 2.353,0 0,0"
             style="fill:#1e4998;fill-opacity:1;fill-rule:nonzero;stroke:none"
             id="path138" />
        </g>
        <g
           id="g140"
           transform="translate(710.1445,214.2305)">
          <path
             d="m 0,0 c -2.73,0 -5.797,0.504 -5.797,5.04 0,2.983 1.303,5.167 3.907,5.167 4.914,0 4.285,-6.049 4.453,-10.165 C 1.849,0.042 0.925,0 0,0 M 6.386,7.015 C 5.924,9.619 4.243,12.14 1.555,13.189 v -0.042 c -0.924,0.379 -1.933,0.589 -3.067,0.589 -5.503,0 -8.443,-4.159 -8.443,-9.242 0,-7.519 6.805,-8.569 11.93,-8.653 -1.05,-1.933 -3.613,-3.654 -9.284,-3.78 v -1.555 c 0,-1.134 1.134,-2.017 2.941,-2.017 8.611,0 11.006,5.587 11.048,8.612 l 0.084,6.595 c 0,1.134 -0.168,2.269 -0.378,3.319"
             style="fill:#1e4998;fill-opacity:1;fill-rule:nonzero;stroke:none"
             id="path142" />
        </g>
        <g
           id="g144"
           transform="translate(116.2666,162.793)">
          <path
             d="m 0,0 c -1.84,0 -3.12,1.04 -3.12,3.199 0,3.08 -0.52,11.918 -0.92,14.279 -0.319,-0.761 -0.759,-1.76 -1.119,-2.84 L -8.519,4.279 C -9.079,2.56 -9.838,0.96 -10.519,0 h -1.279 c -1.6,0 -2.999,1.24 -3.879,3.839 l -3.44,10.159 c -0.44,1.239 -1,2.679 -1.36,3.519 -0.64,-3.44 -1.04,-13.118 -1.04,-17.517 h -1.679 c -1.8,0 -3.04,1.16 -3.04,3.199 0,5.4 1.04,16.117 1.92,20.917 h 1.04 c 3.359,0 5.679,-1.519 6.599,-4.079 l 3.359,-9.438 c 0.72,-2.04 1.16,-3.48 1.36,-4.6 0.2,0.92 0.4,1.68 0.68,2.48 l 2.799,8.558 c 1.24,3.8 2.72,6.279 3.76,7.079 h 0.56 c 2.719,0 4.399,-1.679 4.799,-4.999 C 1.08,15.317 1.8,4.839 1.8,0 Z"
             style="fill:#1e4998;fill-opacity:1;fill-rule:nonzero;stroke:none"
             id="path146" />
        </g>
        <g
           id="g148"
           transform="translate(128.8296,162.6328)">
          <path
             d="m 0,0 c -3.479,0 -5.399,1.96 -5.399,5.64 v 12.277 h 1.28 c 1.999,0 3.199,-1.08 3.199,-3.359 V 6.079 c 0,-1.84 0.8,-2.399 2.76,-2.399 H 2.68 V 2.72 C 2.68,0.76 1.919,0 0,0 m -3.2,19.597 c -1.439,0 -2.599,1.2 -2.599,2.639 0,1.44 1.16,2.6 2.599,2.6 1.44,0 2.68,-1.16 2.68,-2.6 0,-1.439 -1.24,-2.639 -2.68,-2.639"
             style="fill:#1e4998;fill-opacity:1;fill-rule:nonzero;stroke:none"
             id="path150" />
        </g>
        <g
           id="g152"
           transform="translate(149.2275,162.793)">
          <path
             d="m 0,0 c -2,0 -3.279,1.28 -3.279,2.96 v 7.198 c 0,3.04 -1.36,4.4 -3.679,4.4 -1.92,0 -3.28,-1.48 -3.28,-4.079 V 0 h -1.32 c -1.92,0 -3.159,1.28 -3.159,2.96 v 7.838 c 0,3.8 2.519,7.759 8.158,7.759 4.24,0 7.799,-2.879 7.799,-7.998 L 1.24,0 Z"
             style="fill:#1e4998;fill-opacity:1;fill-rule:nonzero;stroke:none"
             id="path154" />
        </g>
        <g
           id="g156"
           transform="translate(161.6689,162.6328)">
          <path
             d="m 0,0 c -3.479,0 -5.399,1.96 -5.399,5.64 v 12.277 h 1.279 c 2,0 3.2,-1.08 3.2,-3.359 V 6.079 c 0,-1.84 0.8,-2.399 2.76,-2.399 H 2.68 V 2.72 C 2.68,0.76 1.919,0 0,0 m -3.2,19.597 c -1.439,0 -2.599,1.2 -2.599,2.639 0,1.44 1.16,2.6 2.599,2.6 1.44,0 2.68,-1.16 2.68,-2.6 0,-1.439 -1.24,-2.639 -2.68,-2.639"
             style="fill:#1e4998;fill-opacity:1;fill-rule:nonzero;stroke:none"
             id="path158" />
        </g>
        <g
           id="g160"
           transform="translate(172.6685,162.3926)">
          <path
             d="M 0,0 C -3.359,0 -5.839,1.72 -5.839,3.56 V 5.6 h 0.16 c 1,-0.88 3.32,-1.72 5.439,-1.72 2.24,0 3.32,0.64 3.32,2 0,1.039 -0.64,1.519 -3.76,1.959 -3.839,0.52 -5.679,2.08 -5.679,4.84 0,3.359 3.04,6.278 7.679,6.278 4.119,0 5.799,-2.119 5.799,-3.879 v -1.72 h -0.2 c -0.92,0.96 -3,1.68 -5.159,1.68 -2.76,0 -3.639,-0.84 -3.639,-2 0,-0.96 0.56,-1.319 3.639,-1.8 C 5.52,10.599 7.559,8.959 7.559,6.119 7.559,2.28 4.839,0 0,0"
             style="fill:#1e4998;fill-opacity:1;fill-rule:nonzero;stroke:none"
             id="path162" />
        </g>
        <g
           id="g164"
           transform="translate(187.9883,185.0293)">
          <path
             d="m 0,0 h 1.08 v -4.079 h 6.279 v -1.88 c 0,-0.92 -0.84,-2.12 -2.719,-2.12 H 1.08 v -7.118 c 0,-2.321 1.04,-3.24 2.839,-3.24 1.44,0 2.56,0.2 3.24,0.64 h 0.2 v -1.599 c 0,-1.88 -1.36,-3.041 -3.999,-3.041 -4.56,0 -6.759,2.48 -6.759,6.719 V -4.839 C -3.399,-2.439 -1.719,0 0,0"
             style="fill:#1e4998;fill-opacity:1;fill-rule:nonzero;stroke:none"
             id="path166" />
        </g>
        <g
           id="g168"
           transform="translate(205.9873,177.5909)">
          <path
             d="m 0,0 c -2.159,0 -3.679,-1.8 -3.799,-3.88 v -0.599 h 2 C 2.48,-4.479 3.439,-4 3.439,-2.72 3.439,-0.92 2.08,0 0,0 m -0.84,-7.679 h -2.959 c 0.36,-2.28 2.44,-3.719 5.079,-3.719 1.88,0 4.119,0.36 5.559,1.719 h 0.16 v -1.439 c 0,-2.32 -1.56,-4.08 -6.559,-4.08 -4.479,0 -8.878,3.559 -8.878,9.119 0,6.039 3.679,9.838 8.838,9.838 3.76,0 7.279,-2.72 7.279,-7.038 0,-3.321 -2.52,-4.4 -8.519,-4.4"
             style="fill:#1e4998;fill-opacity:1;fill-rule:nonzero;stroke:none"
             id="path170" />
        </g>
        <g
           id="g172"
           transform="translate(228.0669,176.5508)">
          <path
             d="m 0,0 c -0.68,0.24 -1.44,0.52 -2.64,0.52 -1.999,0 -3.119,-1.12 -3.119,-3.879 v -10.399 h -1.24 c -2,0 -3.279,1 -3.279,2.88 v 8.358 c 0,3.6 1.88,7.08 6.678,7.08 2.76,0 3.76,-1.601 3.76,-2.96 V 0 Z"
             style="fill:#1e4998;fill-opacity:1;fill-rule:nonzero;stroke:none"
             id="path174" />
        </g>
        <g
           id="g176"
           transform="translate(238.1475,177.5909)">
          <path
             d="m 0,0 c -2.159,0 -3.679,-1.8 -3.799,-3.88 v -0.599 h 2 C 2.48,-4.479 3.439,-4 3.439,-2.72 3.439,-0.92 2.08,0 0,0 m -0.84,-7.679 h -2.959 c 0.36,-2.28 2.44,-3.719 5.079,-3.719 1.88,0 4.119,0.36 5.559,1.719 h 0.16 v -1.439 c 0,-2.32 -1.56,-4.08 -6.559,-4.08 -4.479,0 -8.878,3.559 -8.878,9.119 0,6.039 3.679,9.838 8.838,9.838 3.76,0 7.279,-2.72 7.279,-7.038 0,-3.321 -2.52,-4.4 -8.519,-4.4"
             style="fill:#1e4998;fill-opacity:1;fill-rule:nonzero;stroke:none"
             id="path178" />
        </g>
        <g
           id="g180"
           transform="translate(266.9067,177.5508)">
          <path
             d="m 0,0 c -2.32,0 -3.799,-2.24 -3.799,-5.159 0,-3.76 1.959,-6.199 4.559,-6.199 2.519,0 3.639,1.879 3.639,5.159 C 4.399,-1.64 2.399,0 0,0 m 0.2,-15.158 c -4.759,0 -8.399,4.16 -8.399,9.119 0,5.959 2.88,9.838 8.159,9.838 1.8,0 3.799,-1.279 4.479,-2.879 v 9.718 h 1.4 c 2.119,0 3.079,-1.24 3.079,-3.079 V -6.399 c 0,-5.28 -2.479,-8.759 -8.718,-8.759"
             style="fill:#1e4998;fill-opacity:1;fill-rule:nonzero;stroke:none"
             id="path182" />
        </g>
        <g
           id="g184"
           transform="translate(288.4663,177.5909)">
          <path
             d="m 0,0 c -2.159,0 -3.679,-1.8 -3.799,-3.88 v -0.599 h 2 C 2.48,-4.479 3.439,-4 3.439,-2.72 3.439,-0.92 2.08,0 0,0 m -0.84,-7.679 h -2.959 c 0.36,-2.28 2.44,-3.719 5.079,-3.719 1.88,0 4.119,0.36 5.559,1.719 h 0.16 v -1.439 c 0,-2.32 -1.56,-4.08 -6.559,-4.08 -4.479,0 -8.878,3.559 -8.878,9.119 0,6.039 3.679,9.838 8.838,9.838 3.76,0 7.279,-2.72 7.279,-7.038 0,-3.321 -2.52,-4.4 -8.519,-4.4"
             style="fill:#1e4998;fill-opacity:1;fill-rule:nonzero;stroke:none"
             id="path186" />
        </g>
        <g
           id="g188"
           transform="translate(315.9458,162.6328)">
          <path
             d="m 0,0 c -3.719,0 -5.719,1.96 -5.719,5.64 v 18.716 h 1.28 c 2.239,0 3.199,-1.32 3.199,-3.04 V 6.079 c 0,-1.84 0.96,-2.399 3.08,-2.399 h 1.2 V 2.72 C 3.04,0.76 2,0 0,0"
             style="fill:#1e4998;fill-opacity:1;fill-rule:nonzero;stroke:none"
             id="path190" />
        </g>
        <g
           id="g192"
           transform="translate(321.626,178.1104)">
          <path
             d="M 0,0 H -0.959 V 0.2 C 0,1.08 0.68,2.8 0.68,3.84 c 0,1.72 -1.52,1.799 -1.52,3.598 0,1.441 1.16,2.6 2.76,2.6 1.8,0 2.999,-1.399 2.999,-3.999 C 4.919,2.96 2.72,0 0,0"
             style="fill:#1e4998;fill-opacity:1;fill-rule:nonzero;stroke:none"
             id="path194" />
        </g>
        <g
           id="g196"
           transform="translate(347.5835,165.5928)">
          <path
             d="m 0,0 c 0,-1.92 -1.08,-2.96 -5.279,-2.96 h -2.56 c -5.879,0 -8.959,3.239 -8.959,9.398 v 4.44 c 0,2.319 0.16,4.879 0.44,6.799 0.4,2.88 1.72,3.639 3.719,3.639 H -0.04 v -1.639 c 0,-1.68 -1.04,-2.52 -3.24,-2.52 h -8.279 c -0.24,-1.76 -0.36,-4.12 -0.36,-5.639 h 9.279 v -1.72 c 0,-1.6 -0.96,-2.199 -2.92,-2.199 h -6.359 V 6.158 c 0,-4.159 1.36,-4.999 5.119,-4.999 h 1.521 c 1.759,0 3.559,0.16 5.279,0.561 z"
             style="fill:#1e4998;fill-opacity:1;fill-rule:nonzero;stroke:none"
             id="path198" />
        </g>
        <g
           id="g200"
           transform="translate(364.144,175.0713)">
          <path
             d="m 0,0 c -0.6,1.039 -2.319,1.879 -4.879,1.879 -2.64,0 -4.959,-2.079 -4.959,-4.799 0,-3.279 1.959,-5.519 4.999,-5.519 2.6,0 4.159,0.84 4.799,1.68 h 0.16 v -2.08 c 0,-2.199 -2.12,-3.76 -5.399,-3.76 -4.959,0 -9.239,3.84 -9.239,9.039 0,5.16 3.56,9.599 9.759,9.599 2.879,0 4.959,-1.76 4.959,-3.92 L 0.2,0 Z"
             style="fill:#1e4998;fill-opacity:1;fill-rule:nonzero;stroke:none"
             id="path202" />
        </g>
        <g
           id="g204"
           transform="translate(375.145,177.3106)">
          <path
             d="m 0,0 c -2.6,0 -3.919,-2.159 -3.919,-5.159 0,-3.6 1.319,-5.719 4.319,-5.719 2.6,0 3.879,2.119 3.879,5.079 C 4.279,-2.159 2.96,0 0,0 m 0.4,4.039 c 5.439,0 8.559,-4.399 8.559,-9.198 0,-5.44 -3.12,-9.759 -8.959,-9.759 -5.439,0 -8.559,4.319 -8.559,9.119 0,5.439 3.12,9.838 8.959,9.838"
             style="fill:#1e4998;fill-opacity:1;fill-rule:nonzero;stroke:none"
             id="path206" />
        </g>
        <g
           id="g208"
           transform="translate(403.0239,162.793)">
          <path
             d="m 0,0 c -2,0 -3.279,1.28 -3.279,2.96 v 7.198 c 0,3.04 -1.361,4.4 -3.68,4.4 -1.92,0 -3.279,-1.48 -3.279,-4.079 V 0 h -1.321 c -1.919,0 -3.159,1.28 -3.159,2.96 v 7.838 c 0,3.8 2.52,7.759 8.158,7.759 4.24,0 7.799,-2.879 7.799,-7.998 L 1.239,0 Z"
             style="fill:#1e4998;fill-opacity:1;fill-rule:nonzero;stroke:none"
             id="path210" />
        </g>
        <g
           id="g212"
           transform="translate(417.0239,177.3106)">
          <path
             d="m 0,0 c -2.6,0 -3.919,-2.159 -3.919,-5.159 0,-3.6 1.319,-5.719 4.319,-5.719 2.6,0 3.879,2.119 3.879,5.079 C 4.279,-2.159 2.96,0 0,0 m 0.4,4.039 c 5.438,0 8.558,-4.399 8.558,-9.198 0,-5.44 -3.12,-9.759 -8.958,-9.759 -5.439,0 -8.559,4.319 -8.559,9.119 0,5.439 3.12,9.838 8.959,9.838"
             style="fill:#1e4998;fill-opacity:1;fill-rule:nonzero;stroke:none"
             id="path214" />
        </g>
        <g
           id="g216"
           transform="translate(455.4199,162.793)">
          <path
             d="m 0,0 c -2.439,0 -3.399,1.16 -3.399,3.279 v 6.999 c 0,2.999 -1.36,4.28 -3.32,4.28 -1.84,0 -3.079,-1.281 -3.079,-3.76 V 0 h -1.2 c -1.999,0 -3.279,1.16 -3.279,3.279 v 6.999 c 0,2.999 -1.4,4.28 -3.36,4.28 -1.759,0 -3.079,-1.4 -3.079,-3.88 V 0 h -1.2 c -1.84,0 -3.279,1.2 -3.279,3.279 v 7.039 c 0,4.919 2.599,8.239 8.078,8.239 2.36,0 4.2,-1.079 5.519,-2.839 1.04,1.679 2.999,2.839 5.2,2.839 4.159,0 7.518,-2.52 7.518,-7.679 L 1.12,0 Z"
             style="fill:#1e4998;fill-opacity:1;fill-rule:nonzero;stroke:none"
             id="path218" />
        </g>
        <g
           id="g220"
           transform="translate(467.7432,162.6328)">
          <path
             d="m 0,0 c -3.479,0 -5.399,1.96 -5.399,5.64 v 12.277 h 1.28 c 1.999,0 3.199,-1.08 3.199,-3.359 V 6.079 c 0,-1.84 0.8,-2.399 2.76,-2.399 H 2.68 V 2.72 C 2.68,0.76 1.92,0 0,0 m -3.199,19.597 c -1.441,0 -2.6,1.2 -2.6,2.639 0,1.44 1.159,2.6 2.6,2.6 1.439,0 2.679,-1.16 2.679,-2.6 0,-1.439 -1.24,-2.639 -2.679,-2.639"
             style="fill:#1e4998;fill-opacity:1;fill-rule:nonzero;stroke:none"
             id="path222" />
        </g>
        <g
           id="g224"
           transform="translate(480.8623,177.5909)">
          <path
             d="M 0,0 C -2.159,0 -3.679,-1.8 -3.799,-3.88 V -4.479 H -1.8 C 2.479,-4.479 3.439,-4 3.439,-2.72 3.439,-0.92 2.08,0 0,0 m -0.84,-7.679 h -2.959 c 0.36,-2.28 2.44,-3.719 5.079,-3.719 1.88,0 4.119,0.36 5.559,1.719 h 0.16 v -1.439 c 0,-2.32 -1.56,-4.08 -6.559,-4.08 -4.479,0 -8.878,3.559 -8.878,9.119 0,6.039 3.679,9.838 8.838,9.838 3.759,0 7.279,-2.72 7.279,-7.038 0,-3.321 -2.52,-4.4 -8.519,-4.4"
             style="fill:#1e4998;fill-opacity:1;fill-rule:nonzero;stroke:none"
             id="path226" />
        </g>
        <g
           id="g228"
           transform="translate(509.8613,177.5909)">
          <path
             d="M 0,0 C -2.159,0 -3.679,-1.8 -3.799,-3.88 V -4.479 H -1.8 C 2.479,-4.479 3.439,-4 3.439,-2.72 3.439,-0.92 2.08,0 0,0 m -0.84,-7.679 h -2.959 c 0.36,-2.28 2.44,-3.719 5.079,-3.719 1.88,0 4.119,0.36 5.559,1.719 h 0.16 v -1.439 c 0,-2.32 -1.56,-4.08 -6.559,-4.08 -4.479,0 -8.878,3.559 -8.878,9.119 0,6.039 3.679,9.838 8.838,9.838 3.759,0 7.279,-2.72 7.279,-7.038 0,-3.321 -2.52,-4.4 -8.519,-4.4"
             style="fill:#1e4998;fill-opacity:1;fill-rule:nonzero;stroke:none"
             id="path230" />
        </g>
        <g
           id="g232"
           transform="translate(525.2617,185.0293)">
          <path
             d="m 0,0 h 1.079 v -4.079 h 6.279 v -1.88 c 0,-0.92 -0.839,-2.12 -2.719,-2.12 h -3.56 v -7.118 c 0,-2.321 1.04,-3.24 2.84,-3.24 1.439,0 2.56,0.2 3.239,0.64 h 0.2 v -1.599 c 0,-1.88 -1.359,-3.041 -3.999,-3.041 -4.559,0 -6.758,2.48 -6.758,6.719 V -4.839 C -3.399,-2.439 -1.72,0 0,0"
             style="fill:#1e4998;fill-opacity:1;fill-rule:nonzero;stroke:none"
             id="path234" />
        </g>
        <g
           id="g236"
           transform="translate(552.7803,177.5508)">
          <path
             d="m 0,0 c -2.32,0 -3.8,-2.24 -3.8,-5.159 0,-3.76 1.96,-6.199 4.56,-6.199 2.519,0 3.638,1.879 3.638,5.159 C 4.398,-1.64 2.399,0 0,0 m 0.199,-15.158 c -4.759,0 -8.398,4.16 -8.398,9.119 0,5.959 2.88,9.838 8.159,9.838 1.799,0 3.799,-1.279 4.478,-2.879 v 9.718 h 1.401 c 2.119,0 3.079,-1.24 3.079,-3.079 V -6.399 c 0,-5.28 -2.48,-8.759 -8.719,-8.759"
             style="fill:#1e4998;fill-opacity:1;fill-rule:nonzero;stroke:none"
             id="path238" />
        </g>
        <g
           id="g240"
           transform="translate(574.3398,177.5909)">
          <path
             d="M 0,0 C -2.159,0 -3.679,-1.8 -3.799,-3.88 V -4.479 H -1.8 C 2.479,-4.479 3.439,-4 3.439,-2.72 3.439,-0.92 2.08,0 0,0 m -0.84,-7.679 h -2.959 c 0.36,-2.28 2.44,-3.719 5.079,-3.719 1.88,0 4.119,0.36 5.559,1.719 h 0.16 v -1.439 c 0,-2.32 -1.56,-4.08 -6.559,-4.08 -4.479,0 -8.878,3.559 -8.878,9.119 0,6.039 3.679,9.838 8.838,9.838 3.759,0 7.279,-2.72 7.279,-7.038 0,-3.321 -2.52,-4.4 -8.519,-4.4"
             style="fill:#1e4998;fill-opacity:1;fill-rule:nonzero;stroke:none"
             id="path242" />
        </g>
        <g
           id="g244"
           transform="translate(591.46,162.3926)">
          <path
             d="M 0,0 C -3.359,0 -5.839,1.72 -5.839,3.56 V 5.6 h 0.159 c 1,-0.88 3.32,-1.72 5.44,-1.72 2.239,0 3.319,0.64 3.319,2 0,1.039 -0.64,1.519 -3.759,1.959 -3.84,0.52 -5.679,2.08 -5.679,4.84 0,3.359 3.04,6.278 7.678,6.278 4.119,0 5.799,-2.119 5.799,-3.879 v -1.72 H 6.919 c -0.92,0.96 -3,1.68 -5.159,1.68 -2.76,0 -3.64,-0.84 -3.64,-2 0,-0.96 0.56,-1.319 3.64,-1.8 C 5.519,10.599 7.559,8.959 7.559,6.119 7.559,2.28 4.839,0 0,0"
             style="fill:#1e4998;fill-opacity:1;fill-rule:nonzero;stroke:none"
             id="path246" />
        </g>
        <g
           id="g248"
           transform="translate(625.0186,182.8692)">
          <path
             d="m 0,0 h -7.438 v -5.959 h 8.717 v -1.439 c 0,-1.56 -1.239,-2.4 -2.319,-2.4 h -6.199 v -10.278 h -1.999 c -1.76,0 -2.84,0.92 -2.84,2.8 V 0.32 c 0,2.96 1.2,3.72 4.039,3.72 H 2.76 V 2.521 C 2.76,1.4 1.92,0 0,0"
             style="fill:#1e4998;fill-opacity:1;fill-rule:nonzero;stroke:none"
             id="path250" />
        </g>
        <g
           id="g252"
           transform="translate(636.5791,162.6328)">
          <path
             d="m 0,0 c -3.479,0 -5.399,1.96 -5.399,5.64 v 12.277 h 1.28 c 1.999,0 3.199,-1.08 3.199,-3.359 V 6.079 c 0,-1.84 0.8,-2.399 2.76,-2.399 H 2.68 V 2.72 C 2.68,0.76 1.92,0 0,0 m -3.199,19.597 c -1.441,0 -2.6,1.2 -2.6,2.639 0,1.44 1.159,2.6 2.6,2.6 1.439,0 2.679,-1.16 2.679,-2.6 0,-1.439 -1.24,-2.639 -2.679,-2.639"
             style="fill:#1e4998;fill-opacity:1;fill-rule:nonzero;stroke:none"
             id="path254" />
        </g>
        <g
           id="g256"
           transform="translate(656.9775,162.793)">
          <path
             d="m 0,0 c -2,0 -3.279,1.28 -3.279,2.96 v 7.198 c 0,3.04 -1.361,4.4 -3.68,4.4 -1.92,0 -3.279,-1.48 -3.279,-4.079 V 0 h -1.321 c -1.92,0 -3.159,1.28 -3.159,2.96 v 7.838 c 0,3.8 2.52,7.759 8.158,7.759 4.24,0 7.799,-2.879 7.799,-7.998 L 1.239,0 Z"
             style="fill:#1e4998;fill-opacity:1;fill-rule:nonzero;stroke:none"
             id="path258" />
        </g>
        <g
           id="g260"
           transform="translate(673.0977,170.6719)">
          <path
             d="m 0,0 h -1.601 c -3.438,0 -4.398,-0.8 -4.398,-2.28 0,-1.4 1.119,-2.24 3.119,-2.24 1.92,0 2.88,0.96 2.88,2.8 z m -2.44,-8.199 h -0.919 c -4.32,0 -7.28,2.44 -7.28,5.76 0,3.239 2.36,5.678 9.038,5.678 h 1.561 v 0.24 c 0,2.56 -1.2,3.32 -3.88,3.32 -3.279,0 -5.079,-1.24 -5.759,-2.08 h -0.16 v 1.44 c 0,2.039 1.8,4.439 6.559,4.439 4.04,0 7.678,-1.879 7.678,-8.119 V -1.68 c 0,-3.84 -2.838,-6.519 -6.838,-6.519"
             style="fill:#1e4998;fill-opacity:1;fill-rule:nonzero;stroke:none"
             id="path262" />
        </g>
        <g
           id="g264"
           transform="translate(696.457,162.793)">
          <path
             d="m 0,0 c -2,0 -3.279,1.28 -3.279,2.96 v 7.198 c 0,3.04 -1.361,4.4 -3.68,4.4 -1.92,0 -3.279,-1.48 -3.279,-4.079 V 0 h -1.321 c -1.919,0 -3.159,1.28 -3.159,2.96 v 7.838 c 0,3.8 2.52,7.759 8.158,7.759 4.24,0 7.799,-2.879 7.799,-7.998 L 1.239,0 Z"
             style="fill:#1e4998;fill-opacity:1;fill-rule:nonzero;stroke:none"
             id="path266" />
        </g>
        <g
           id="g268"
           transform="translate(716.416,175.0713)">
          <path
             d="m 0,0 c -0.6,1.039 -2.319,1.879 -4.879,1.879 -2.64,0 -4.959,-2.079 -4.959,-4.799 0,-3.279 1.959,-5.519 4.999,-5.519 2.6,0 4.159,0.84 4.799,1.68 h 0.16 v -2.08 c 0,-2.199 -2.12,-3.76 -5.399,-3.76 -4.959,0 -9.239,3.84 -9.239,9.039 0,5.16 3.56,9.599 9.759,9.599 2.879,0 4.959,-1.76 4.959,-3.92 L 0.2,0 Z"
             style="fill:#1e4998;fill-opacity:1;fill-rule:nonzero;stroke:none"
             id="path270" />
        </g>
        <g
           id="g272"
           transform="translate(727.6162,177.5909)">
          <path
             d="M 0,0 C -2.159,0 -3.679,-1.8 -3.799,-3.88 V -4.479 H -1.8 C 2.479,-4.479 3.439,-4 3.439,-2.72 3.439,-0.92 2.08,0 0,0 m -0.84,-7.679 h -2.959 c 0.36,-2.28 2.44,-3.719 5.079,-3.719 1.88,0 4.119,0.36 5.559,1.719 h 0.16 v -1.439 c 0,-2.32 -1.56,-4.08 -6.559,-4.08 -4.479,0 -8.878,3.559 -8.878,9.119 0,6.039 3.679,9.838 8.838,9.838 3.759,0 7.279,-2.72 7.279,-7.038 0,-3.321 -2.52,-4.4 -8.519,-4.4"
             style="fill:#1e4998;fill-opacity:1;fill-rule:nonzero;stroke:none"
             id="path274" />
        </g>
        <g
           id="g276"
           transform="translate(744.7373,162.3926)">
          <path
             d="M 0,0 C -3.359,0 -5.839,1.72 -5.839,3.56 V 5.6 h 0.159 c 1,-0.88 3.32,-1.72 5.44,-1.72 2.239,0 3.319,0.64 3.319,2 0,1.039 -0.64,1.519 -3.759,1.959 -3.84,0.52 -5.679,2.08 -5.679,4.84 0,3.359 3.04,6.278 7.678,6.278 4.119,0 5.799,-2.119 5.799,-3.879 v -1.72 H 6.919 c -0.92,0.96 -3,1.68 -5.159,1.68 -2.76,0 -3.64,-0.84 -3.64,-2 0,-0.96 0.56,-1.319 3.64,-1.8 C 5.519,10.599 7.559,8.959 7.559,6.119 7.559,2.28 4.839,0 0,0"
             style="fill:#1e4998;fill-opacity:1;fill-rule:nonzero;stroke:none"
             id="path278" />
        </g>
        <g
           id="g280"
           transform="translate(202.3923,188.5742)">
          <path
             d="m 0,0 c 0.931,-0.478 2.744,-1.933 3.566,-2.69 1.228,-1.13 1.542,-1.63 1.1,-2.69 -1.267,0.749 -2.533,1.498 -3.8,2.247 -0.244,0.145 -0.492,0.292 -0.686,0.5 C -0.454,-1.954 -0.393,-0.757 0,0"
             style="fill:#1e4998;fill-opacity:1;fill-rule:nonzero;stroke:none"
             id="path282" />
        </g>
        <g
           id="g284"
           transform="translate(267.5908,514.9249)">
          <path
             d="M 0,0 C 1.386,0 2.479,1.05 2.479,2.436 2.479,3.738 1.386,4.789 0,4.789 -1.302,4.789 -2.353,3.738 -2.353,2.436 -2.353,1.05 -1.302,0 0,0"
             style="fill:#1e4998;fill-opacity:1;fill-rule:nonzero;stroke:none"
             id="path286" />
        </g>
        <g
           id="g288"
           transform="translate(273.2617,514.9249)">
          <path
             d="M 0,0 C 1.344,0 2.437,1.05 2.437,2.436 2.437,3.738 1.344,4.789 0,4.789 -1.302,4.789 -2.394,3.738 -2.394,2.436 -2.394,1.05 -1.302,0 0,0"
             style="fill:#1e4998;fill-opacity:1;fill-rule:nonzero;stroke:none"
             id="path290" />
        </g>
        <g
           id="g292"
           transform="translate(274.7324,498.1216)">
          <path
             d="m 0,0 c -2.772,0.084 -8.36,-0.588 -8.36,4.957 0,3.024 1.302,5.167 3.907,5.167 4.033,0 4.495,-3.571 4.495,-7.1 C 0.042,1.975 0,0.924 0,0 m 13.774,-4.201 h 4.198 0.632 3.568 1.261 0.923 c 2.311,0.084 4.033,0.799 5.251,1.974 1.38,-1.222 3.286,-1.882 5.669,-1.958 v -0.016 h 0.464 0.168 4.197 0.632 4.198 0.631 3.569 1.261 2.603 c 4.789,0.168 7.1,3.235 7.1,7.141 v 3.865 c 0,2.185 -1.093,3.319 -3.235,3.319 H 55.31 V 3.193 C 55.31,1.26 54.554,0.21 52.621,0 h -2.225 -1.261 -3.569 -0.631 -4.198 -0.632 -4.197 c -3.151,0 -4.242,1.302 -4.411,4.243 v 2.562 c 0,2.185 -1.092,3.277 -3.276,3.277 H 26.708 V 3.15 C 26.708,1.218 25.952,0.168 23.978,0 H 23.433 22.172 18.604 17.972 13.774 13.143 9.115 8.313 6.133 4.159 l 0.042,3.613 c 0.042,4.872 -2.353,10.039 -8.276,10.039 -5.503,0 -8.444,-4.158 -8.444,-9.241 0,-7.519 6.806,-8.528 11.931,-8.654 2.562,0.126 9.956,0 9.703,0.042 h 4.028 z"
             style="fill:#1e4998;fill-opacity:1;fill-rule:nonzero;stroke:none"
             id="path294" />
        </g>
        <g
           id="g296"
           transform="translate(307.8682,489.0059)">
          <path
             d="m 0,0 c 0,1.302 -1.176,2.395 -2.479,2.395 -1.302,0 -2.394,-1.093 -2.394,-2.395 0,-1.386 1.092,-2.436 2.394,-2.436 C -1.176,-2.436 0,-1.386 0,0"
             style="fill:#1e4998;fill-opacity:1;fill-rule:nonzero;stroke:none"
             id="path298" />
        </g>
        <g
           id="g300"
           transform="translate(297.5342,489.0059)">
          <path
             d="m 0,0 c 0,-1.386 1.092,-2.436 2.437,-2.436 1.302,0 2.394,1.05 2.394,2.436 0,1.302 -1.092,2.395 -2.394,2.395 C 1.092,2.395 0,1.302 0,0"
             style="fill:#1e4998;fill-opacity:1;fill-rule:nonzero;stroke:none"
             id="path302" />
        </g>
        <g
           id="g304"
           transform="translate(328.1099,489.2159)">
          <path
             d="m 0,0 c 0,-1.386 1.05,-2.436 2.352,-2.436 1.26,0 2.479,1.05 2.437,2.436 0,1.345 -1.135,2.395 -2.437,2.395 C 1.008,2.395 0,1.302 0,0"
             style="fill:#1e4998;fill-opacity:1;fill-rule:nonzero;stroke:none"
             id="path306" />
        </g>
        <g
           id="g308"
           transform="translate(368.5977,514.9249)">
          <path
             d="M 0,0 C 1.344,0 2.395,1.092 2.395,2.436 2.395,3.78 1.344,4.789 0,4.789 -1.386,4.789 -2.395,3.78 -2.395,2.436 -2.395,1.092 -1.386,0 0,0"
             style="fill:#1e4998;fill-opacity:1;fill-rule:nonzero;stroke:none"
             id="path310" />
        </g>
        <g
           id="g312"
           transform="translate(391.9492,497.4497)">
          <path
             d="m 0,0 c -2.646,0 -3.949,2.1 -3.949,5.083 0,3.57 1.345,5.671 4.327,5.671 2.562,0 3.865,-2.101 3.865,-5.125 C 4.243,2.1 2.982,0 0,0 m -23.184,3.654 c -2.058,1.177 -3.78,3.487 -6.006,4.579 0.797,0.378 2.94,2.226 6.216,2.226 1.387,0 2.983,-0.335 4.789,-1.26 -1.68,-2.352 -3.108,-3.991 -4.999,-5.545 m 35.656,-7.183 h 0.173 1.091 0.248 c 4.83,0.168 7.183,3.193 7.183,7.141 v 14.955 c 0,2.184 -1.134,3.277 -3.318,3.277 H 16.294 V 3.822 c 0,-1.89 -0.714,-2.982 -2.688,-3.15 h -0.29 c -3.528,0 -4.873,1.218 -4.873,4.411 0,5.083 -2.982,9.199 -8.443,9.199 -5.041,0 -8.107,-4.074 -8.107,-8.527 C -8.191,2.016 -9.2,0.672 -13.064,0.672 h -0.42 -0.332 c -0.672,0 -0.672,-0.042 -3.444,-0.042 -0.883,0 -1.891,0.126 -2.857,0.714 2.941,2.436 5.503,6.469 6.385,8.612 -1.932,1.05 -4.83,4.2 -9.704,4.2 -1.848,0 -4.746,-1.092 -4.873,-1.386 -1.848,-1.008 -3.99,-2.311 -5.082,-2.772 0,-1.135 -0.211,-2.899 -0.211,-3.571 1.891,-0.462 4.664,-2.352 6.638,-5.083 -0.588,-0.546 -1.723,-0.672 -2.983,-0.672 h -5.039 -0.842 -3.988 -0.631 -4.617 -0.213 -2.601 c -0.42,0 -0.714,0.042 -0.966,0.084 v 6.721 c 0,2.395 -0.757,3.361 -3.109,3.361 h -1.806 V 0.672 c 0,-4.537 0.462,-7.393 -2.941,-7.393 -0.168,0 -0.966,0.042 -1.722,0.168 v -1.765 c 0,-1.638 1.386,-2.562 3.444,-2.562 3.529,0 5.881,2.731 5.881,5.713 v 1.638 h 0.337 3.483 0.213 4.617 0.631 3.988 0.842 3.863 c 3.319,0 6.385,1.47 7.31,2.269 3.36,-2.479 7.939,-2.269 9.829,-2.269 h 0.5 1.092 0.383 v 0.014 c 2.709,0.069 4.812,0.859 6.296,2.423 1.47,-1.512 3.57,-2.437 6.091,-2.437 2.394,0 4.327,0.925 5.713,2.353 1.481,-1.563 3.61,-2.316 6.381,-2.347 z"
             style="fill:#1e4998;fill-opacity:1;fill-rule:nonzero;stroke:none"
             id="path314" />
        </g>
        <g
           id="g316"
           transform="translate(419.877,519.2515)">
          <path
             d="m 0,0 h -2.142 v -22.096 c 0,-2.226 1.428,-3.235 2.898,-3.235 H 2.688 V -2.395 C 2.688,-1.008 1.218,0 0,0"
             style="fill:#1e4998;fill-opacity:1;fill-rule:nonzero;stroke:none"
             id="path318" />
        </g>
        <g
           id="g320"
           transform="translate(442.3887,514.9249)">
          <path
             d="M 0,0 C 1.386,0 2.479,1.05 2.479,2.436 2.479,3.738 1.386,4.789 0,4.789 -1.303,4.789 -2.353,3.738 -2.353,2.436 -2.353,1.05 -1.303,0 0,0"
             style="fill:#1e4998;fill-opacity:1;fill-rule:nonzero;stroke:none"
             id="path322" />
        </g>
        <g
           id="g324"
           transform="translate(448.0596,514.9249)">
          <path
             d="M 0,0 C 1.344,0 2.437,1.05 2.437,2.436 2.437,3.738 1.344,4.789 0,4.789 -1.303,4.789 -2.395,3.738 -2.395,2.436 -2.395,1.05 -1.303,0 0,0"
             style="fill:#1e4998;fill-opacity:1;fill-rule:nonzero;stroke:none"
             id="path326" />
        </g>
        <g
           id="g328"
           transform="translate(556.332,497.4497)">
          <path
             d="m 0,0 c -2.646,0 -3.949,2.1 -3.949,5.083 0,3.57 1.345,5.671 4.327,5.671 2.562,0 3.864,-2.101 3.864,-5.125 C 4.242,2.1 2.982,0 0,0 m -25.115,0 c -2.647,0 -3.949,2.1 -3.949,5.083 0,3.57 1.344,5.671 4.327,5.671 2.562,0 3.864,-2.101 3.864,-5.125 C -20.873,2.1 -22.133,0 -25.115,0 m -81.688,0.672 c -2.772,0.084 -8.359,-0.588 -8.359,4.957 0,3.024 1.303,5.167 3.907,5.167 4.032,0 4.494,-3.571 4.494,-7.1 0,-1.05 -0.042,-2.1 -0.042,-3.024 m 127.969,2.94 v 14.955 c 0,2.184 -1.134,3.277 -3.318,3.277 H 16.293 V 3.822 c 0,-1.89 -0.714,-2.982 -2.689,-3.15 h -0.288 c -3.529,0 -4.873,1.218 -4.873,4.411 0,5.083 -2.982,9.199 -8.443,9.199 -5.041,0 -8.107,-4.074 -8.107,-8.527 -0.078,-3.471 -0.957,-4.876 -4.175,-5.06 -3.152,0.116 -4.39,1.353 -4.39,4.388 0,5.083 -2.982,9.199 -8.443,9.199 -5.041,0 -8.108,-4.074 -8.108,-8.527 -0.079,-3.529 -0.985,-4.923 -4.334,-5.069 -2.988,0.142 -3.406,1.356 -3.603,4.229 v 13.694 c 0,2.142 -1.093,3.277 -3.277,3.277 h -1.512 V 3.865 c 0,-1.933 -0.756,-2.983 -2.731,-3.193 h -1.008 -3.565 -0.425 -3.566 c 0,10.208 -7.561,12.224 -7.898,12.224 -0.546,0.126 -1.049,0.252 -1.511,0.252 3.822,2.899 7.645,5.713 11.467,8.612 0.504,0.378 0.714,1.008 0.714,1.596 0,0.546 -0.168,1.092 -0.42,1.428 l -1.133,1.47 c -5.293,-3.948 -10.628,-7.939 -15.879,-11.888 -0.84,-0.63 -1.177,-1.47 -1.177,-2.142 0,-1.092 0.883,-1.891 1.513,-2.73 0.755,0.126 1.428,0.168 2.058,0.168 1.47,0 2.731,-0.378 4.158,-1.261 0.126,-0.084 3.74,-2.394 3.74,-7.729 h -12.098 -1.051 -3.778 -0.632 -4.198 -0.631 -4.198 -0.632 -4.198 -0.631 -4.028 -0.802 -2.18 -1.975 l 0.042,3.613 c 0.042,4.872 -2.352,10.039 -8.275,10.039 -5.503,0 -8.443,-4.158 -8.443,-9.241 0,-7.52 6.804,-8.528 11.929,-8.654 2.563,0.126 9.956,0 9.704,0.042 h 4.028 0.631 4.198 0.632 4.198 0.631 4.198 0.632 3.778 1.051 20.032 0.425 5.036 v 0.055 c 2.293,0.161 3.909,0.732 5.166,1.919 1.267,-1.122 2.476,-1.773 4.451,-1.932 v -0.042 h 1.01 0.082 1.011 v 0.036 c 2.41,0.169 4.3,0.959 5.668,2.401 1.471,-1.512 3.571,-2.437 6.092,-2.437 2.394,0 4.326,0.925 5.713,2.353 1.327,-1.402 3.175,-2.155 5.54,-2.318 v -0.035 h 1.012 0.079 1.014 v 0.036 c 2.409,0.169 4.298,0.959 5.665,2.401 1.471,-1.512 3.571,-2.437 6.092,-2.437 2.394,0 4.326,0.925 5.713,2.353 1.48,-1.563 3.61,-2.316 6.38,-2.347 v -0.006 h 0.173 1.092 0.246 c 4.831,0.168 7.184,3.193 7.184,7.141"
             style="fill:#1e4998;fill-opacity:1;fill-rule:nonzero;stroke:none"
             id="path330" />
        </g>
        <g
           id="g332"
           transform="translate(585.0156,493.9209)">
          <path
             d="m 0,0 h 1.933 v 22.936 c 0,1.386 -1.471,2.395 -2.689,2.395 H -2.898 V 3.234 C -2.898,1.008 -1.471,0 0,0"
             style="fill:#1e4998;fill-opacity:1;fill-rule:nonzero;stroke:none"
             id="path334" />
        </g>
        <g
           id="g336"
           transform="translate(272.8174,459.9512)">
          <path
             d="m 0,0 c -1.387,0 -2.521,0 -3.613,0.21 v 6.68 c 0.546,0.168 1.764,0.252 2.226,0.252 h 1.429 c 2.226,0 3.78,-0.673 3.78,-3.739 C 3.822,1.176 2.058,0 0,0 m 6.889,-6.049 c -0.63,1.47 -1.806,2.983 -3.151,3.571 2.941,0.42 5.209,3.276 5.209,6.721 0,4.243 -3.276,7.267 -8.317,7.267 h -2.815 c -1.89,0 -5.419,-0.504 -6.511,-0.924 v -21.213 c 0,-2.017 1.176,-3.403 3.445,-3.403 h 1.638 v 10.166 c 0.504,0 1.386,-0.169 2.521,-0.337 1.302,-0.21 2.394,-0.42 3.528,-3.192 l 1.891,-4.579 c 0.672,-1.596 2.058,-2.226 3.696,-2.226 1.386,0 1.849,0.168 2.436,0.798 -0.293,0.462 -0.923,1.134 -1.554,2.604 z"
             style="fill:#1e4998;fill-opacity:1;fill-rule:nonzero;stroke:none"
             id="path338" />
        </g>
        <g
           id="g340"
           transform="translate(294.1948,449.7437)">
          <path
             d="m 0,0 c -3.15,0 -4.537,2.226 -4.537,6.007 0,3.151 1.387,5.419 4.117,5.419 3.108,0 4.495,-2.268 4.495,-6.091 C 4.075,2.226 2.73,0 0,0 m 0,15.668 c -6.133,0 -9.41,-4.62 -9.41,-10.333 0,-5.041 3.277,-9.578 8.99,-9.578 6.133,0 9.41,4.537 9.41,10.25 0,5.041 -3.277,9.661 -8.99,9.661"
             style="fill:#1e4998;fill-opacity:1;fill-rule:nonzero;stroke:none"
             id="path342" />
        </g>
        <g
           id="g344"
           transform="translate(319.8994,464.9922)">
          <path
             d="m 0,0 h -2.058 c -0.421,-3.907 -2.143,-9.662 -3.697,-13.232 -1.722,3.36 -3.108,7.309 -3.781,11.006 C -9.788,-0.882 -11.006,0 -12.308,0 h -2.521 c 0.673,-4.495 4.243,-13.946 6.764,-17.727 -1.05,-2.773 -1.639,-3.403 -3.361,-3.487 l -2.688,-0.168 v -0.924 c 0,-1.764 1.554,-2.941 3.318,-2.941 3.445,0 5.293,1.933 8.822,10.25 0.882,2.059 4.201,10.754 4.201,12.771 C 2.227,-0.672 1.512,0 0,0"
             style="fill:#1e4998;fill-opacity:1;fill-rule:nonzero;stroke:none"
             id="path346" />
        </g>
        <g
           id="g348"
           transform="translate(334.8101,452.3902)">
          <path
             d="m 0,0 c 0,-1.933 -1.008,-2.94 -3.025,-2.94 -2.1,0 -3.276,0.881 -3.276,2.352 0,1.554 1.008,2.394 4.62,2.394 H 0 Z m -3.445,12.938 c -4.999,0 -6.889,-2.52 -6.889,-4.663 V 6.763 h 0.168 c 0.714,0.882 2.604,2.184 6.049,2.184 2.815,0 4.075,-0.798 4.075,-3.486 V 5.209 h -1.639 c -7.015,0 -9.493,-2.563 -9.493,-5.965 0,-3.487 3.109,-6.049 7.645,-6.049 h 0.966 c 4.201,0 7.184,2.814 7.184,6.847 v 4.369 c 0,6.553 -3.823,8.527 -8.066,8.527"
             style="fill:#1e4998;fill-opacity:1;fill-rule:nonzero;stroke:none"
             id="path350" />
        </g>
        <g
           id="g352"
           transform="translate(356.6924,464.9922)">
          <path
             d="m 0,0 h -0.882 v -10.712 c 0,-3.234 -1.345,-4.579 -3.319,-4.579 -2.142,0 -3.822,1.387 -3.822,4.915 v 6.974 C -8.023,-1.176 -9.242,0 -11.93,0 h -0.883 v -10.838 c 0,-5.545 3.697,-8.653 8.402,-8.653 5.503,0 8.317,3.024 8.317,8.947 v 7.142 C 3.906,-1.176 2.73,0 0,0"
             style="fill:#1e4998;fill-opacity:1;fill-rule:nonzero;stroke:none"
             id="path354" />
        </g>
        <g
           id="g356"
           transform="translate(385.8413,465.4121)">
          <path
             d="M 0,0 C -2.311,0 -4.369,-1.218 -5.461,-2.982 -6.847,-1.134 -8.78,0 -11.258,0 c -5.755,0 -8.486,-3.486 -8.486,-8.653 v -7.393 c 0,-2.185 1.513,-3.445 3.445,-3.445 h 1.26 v 11.216 c 0,2.604 1.387,4.074 3.235,4.074 2.058,0 3.529,-1.344 3.529,-4.494 v -7.351 c 0,-2.227 1.344,-3.445 3.444,-3.445 h 1.26 v 11.342 c 0,2.604 1.302,3.948 3.235,3.948 2.058,0 3.486,-1.344 3.486,-4.494 v -7.351 c 0,-2.227 1.009,-3.445 3.571,-3.445 H 7.897 V -8.065 C 7.897,-2.646 4.369,0 0,0"
             style="fill:#1e4998;fill-opacity:1;fill-rule:nonzero;stroke:none"
             id="path358" />
        </g>
        <g
           id="g360"
           transform="translate(403.0156,456.7588)">
          <path
             d="M 0,0 V 0.63 C 0.126,2.814 1.722,4.705 3.991,4.705 6.175,4.705 7.604,3.739 7.604,1.848 7.604,0.504 6.595,0 2.1,0 Z m 12.056,1.26 c 0,4.537 -3.697,7.393 -7.645,7.393 -5.419,0 -9.284,-3.99 -9.284,-10.333 0,-5.84 4.621,-9.578 9.326,-9.578 5.251,0 6.889,1.848 6.889,4.285 v 1.512 H 11.174 C 9.662,-6.889 7.309,-7.267 5.335,-7.267 2.563,-7.267 0.378,-5.755 0,-3.36 h 3.108 c 6.302,0 8.948,1.133 8.948,4.62"
             style="fill:#1e4998;fill-opacity:1;fill-rule:nonzero;stroke:none"
             id="path362" />
        </g>
        <g
           id="g364"
           transform="translate(438.001,449.4917)">
          <path
             d="m 0,0 c -2.73,0 -4.789,2.563 -4.789,6.511 0,3.067 1.555,5.419 3.991,5.419 2.521,0 4.621,-1.722 4.621,-6.511 C 3.823,1.974 2.646,0 0,0 M 5.335,23.104 H 3.865 V 12.896 C 3.15,14.577 1.051,15.92 -0.84,15.92 c -5.545,0 -8.569,-4.074 -8.569,-10.333 0,-5.209 3.822,-9.578 8.821,-9.578 6.553,0 9.157,3.655 9.157,9.2 v 14.66 c 0,1.933 -1.007,3.235 -3.234,3.235"
             style="fill:#1e4998;fill-opacity:1;fill-rule:nonzero;stroke:none"
             id="path366" />
        </g>
        <g
           id="g368"
           transform="translate(464.8398,464.9922)">
          <path
             d="m 0,0 h -0.883 v -10.712 c 0,-3.234 -1.344,-4.579 -3.318,-4.579 -2.143,0 -3.822,1.387 -3.822,4.915 v 6.974 C -8.023,-1.176 -9.242,0 -11.931,0 h -0.882 v -10.838 c 0,-5.545 3.697,-8.653 8.402,-8.653 5.503,0 8.317,3.024 8.317,8.947 v 7.142 C 3.906,-1.176 2.73,0 0,0"
             style="fill:#1e4998;fill-opacity:1;fill-rule:nonzero;stroke:none"
             id="path370" />
        </g>
        <g
           id="g372"
           transform="translate(507.0088,471.2515)">
          <path
             d="M 0,0 H -0.588 C -1.68,-0.84 -3.234,-3.445 -4.536,-7.436 l -2.941,-8.989 c -0.294,-0.84 -0.504,-1.638 -0.714,-2.604 -0.21,1.176 -0.672,2.688 -1.428,4.83 l -3.528,9.914 C -14.114,-1.596 -16.551,0 -20.079,0 h -1.092 c -0.925,-5.041 -2.016,-16.299 -2.016,-21.97 0,-2.142 1.301,-3.361 3.192,-3.361 h 1.765 c 0,4.621 0.419,14.787 1.091,18.4 0.378,-0.882 0.966,-2.395 1.429,-3.697 l 3.612,-10.67 c 0.924,-2.73 2.395,-4.033 4.075,-4.033 h 1.344 c 0.714,1.009 1.512,2.689 2.101,4.495 l 3.528,10.88 c 0.378,1.134 0.84,2.185 1.176,2.983 0.421,-2.479 0.967,-11.762 0.967,-14.997 0,-2.268 1.344,-3.361 3.276,-3.361 H 6.26 c 0,5.083 -0.757,16.089 -1.219,20.08 C 4.621,-1.764 2.856,0 0,0"
             style="fill:#1e4998;fill-opacity:1;fill-rule:nonzero;stroke:none"
             id="path374" />
        </g>
        <g
           id="g376"
           transform="translate(528.4268,452.3902)">
          <path
             d="m 0,0 c 0,-1.933 -1.009,-2.94 -3.024,-2.94 -2.101,0 -3.278,0.881 -3.278,2.352 0,1.554 1.009,2.394 4.621,2.394 H 0 Z m -3.444,12.938 c -4.999,0 -6.89,-2.52 -6.89,-4.663 V 6.763 h 0.168 c 0.714,0.882 2.604,2.184 6.049,2.184 2.814,0 4.075,-0.798 4.075,-3.486 V 5.209 h -1.639 c -7.014,0 -9.493,-2.563 -9.493,-5.965 0,-3.487 3.109,-6.049 7.645,-6.049 h 0.966 c 4.201,0 7.184,2.814 7.184,6.847 v 4.369 c 0,6.553 -3.823,8.527 -8.065,8.527"
             style="fill:#1e4998;fill-opacity:1;fill-rule:nonzero;stroke:none"
             id="path378" />
        </g>
        <g
           id="g380"
           transform="translate(544.5117,465.1602)">
          <path
             d="m 0,0 c -5.041,0 -7.016,-3.654 -7.016,-7.435 v -8.78 c 0,-1.974 1.345,-3.024 3.445,-3.024 h 1.302 v 10.922 c 0,2.898 1.176,4.074 3.277,4.074 1.26,0 2.058,-0.294 2.772,-0.546 h 0.168 v 1.681 C 3.948,-1.68 2.898,0 0,0"
             style="fill:#1e4998;fill-opacity:1;fill-rule:nonzero;stroke:none"
             id="path382" />
        </g>
        <g
           id="g384"
           transform="translate(559.4639,449.7437)">
          <path
             d="m 0,0 c -3.15,0 -4.537,2.226 -4.537,6.007 0,3.151 1.387,5.419 4.117,5.419 3.108,0 4.495,-2.268 4.495,-6.091 C 4.075,2.226 2.73,0 0,0 m 0,15.668 c -6.133,0 -9.409,-4.62 -9.409,-10.333 0,-5.041 3.276,-9.578 8.989,-9.578 6.133,0 9.409,4.537 9.409,10.25 0,5.041 -3.276,9.661 -8.989,9.661"
             style="fill:#1e4998;fill-opacity:1;fill-rule:nonzero;stroke:none"
             id="path386" />
        </g>
        <g
           id="g388"
           transform="translate(581.9336,460.7915)">
          <path
             d="m 0,0 c 2.688,0 4.495,-0.882 5.125,-1.974 h 0.21 v 2.226 c 0,2.269 -2.184,4.117 -5.209,4.117 -6.511,0 -10.249,-4.663 -10.249,-10.082 0,-5.461 4.494,-9.494 9.703,-9.494 3.445,0 5.671,1.639 5.671,3.949 v 2.184 H 5.083 c -0.672,-0.882 -2.311,-1.764 -5.041,-1.764 -3.192,0 -5.251,2.353 -5.251,5.797 C -5.209,-2.185 -2.772,0 0,0"
             style="fill:#1e4998;fill-opacity:1;fill-rule:nonzero;stroke:none"
             id="path390" />
        </g>
      </g>
    </g>
  </g>
</svg>
